<mxfile host="65bd71144e">
    <diagram id="oH4as7Kxkg0numI0ga20" name="Current">
        <mxGraphModel dx="1130" dy="724" grid="1" gridSize="10" guides="1" tooltips="1" connect="1" arrows="1" fold="1" page="1" pageScale="1" pageWidth="850" pageHeight="1100" math="0" shadow="0">
            <root>
                <mxCell id="0"/>
                <mxCell id="1" parent="0"/>
                <mxCell id="2" value="MOBILES" style="rounded=1;whiteSpace=wrap;html=1;" parent="1" vertex="1">
                    <mxGeometry x="40" y="80" width="240" height="520" as="geometry"/>
                </mxCell>
                <mxCell id="3" value="TABLE" style="rounded=1;whiteSpace=wrap;html=1;" parent="1" vertex="1">
                    <mxGeometry x="290" y="440" width="590" height="160" as="geometry"/>
                </mxCell>
                <mxCell id="8" value="+ mobiles&lt;br&gt;+ selected states&lt;br&gt;+ selected types&lt;br&gt;+ selected tags" style="text;html=1;strokeColor=none;fillColor=none;align=left;verticalAlign=middle;whiteSpace=wrap;rounded=0;" parent="1" vertex="1">
                    <mxGeometry x="313" y="40" width="100" height="90" as="geometry"/>
                </mxCell>
                <mxCell id="15" value="&lt;div&gt;&lt;span style=&quot;background-color: initial;&quot;&gt;Mobile filter is not reusable. Why?&lt;/span&gt;&lt;br&gt;&lt;/div&gt;&lt;ul&gt;&lt;li&gt;&lt;span style=&quot;background-color: initial;&quot;&gt;Depends on the specific mobiles =&amp;gt; need to be more generic&amp;nbsp;&lt;/span&gt;&lt;br&gt;&lt;/li&gt;&lt;/ul&gt;" style="text;strokeColor=none;fillColor=none;html=1;whiteSpace=wrap;verticalAlign=middle;overflow=hidden;fontSize=16;" parent="1" vertex="1">
                    <mxGeometry x="40" y="650" width="630" height="110" as="geometry"/>
                </mxCell>
                <mxCell id="E5J8wXEW2x_tAlD8U5uv-15" value="" style="group" parent="1" vertex="1" connectable="0">
                    <mxGeometry x="430" y="20" width="150" height="250" as="geometry"/>
                </mxCell>
                <mxCell id="4" value="Mobile Filter" style="rounded=1;whiteSpace=wrap;html=1;verticalAlign=top;" parent="E5J8wXEW2x_tAlD8U5uv-15" vertex="1">
                    <mxGeometry width="150" height="250" as="geometry"/>
                </mxCell>
                <mxCell id="9" value="&lt;h1&gt;&lt;font style=&quot;font-size: 16px;&quot;&gt;Display Data&lt;/font&gt;&lt;/h1&gt;&lt;p&gt;- Mvt states&lt;/p&gt;&lt;p&gt;- Types&lt;/p&gt;&lt;p&gt;- Tags&lt;/p&gt;" style="text;html=1;strokeColor=none;fillColor=none;spacing=5;spacingTop=-20;whiteSpace=wrap;overflow=hidden;rounded=0;" parent="E5J8wXEW2x_tAlD8U5uv-15" vertex="1">
                    <mxGeometry x="10" y="40" width="130" height="180" as="geometry"/>
                </mxCell>
                <mxCell id="E5J8wXEW2x_tAlD8U5uv-16" value="- selected states&lt;br&gt;- selected events&lt;br&gt;- selected periods" style="text;html=1;strokeColor=none;fillColor=none;align=left;verticalAlign=middle;whiteSpace=wrap;rounded=0;" parent="1" vertex="1">
                    <mxGeometry x="790" y="336.5" width="100" height="80" as="geometry"/>
                </mxCell>
                <mxCell id="0TmKVMzRt482meiMploH-15" value="" style="shape=doubleArrow;whiteSpace=wrap;html=1;fontSize=16;" parent="1" vertex="1">
                    <mxGeometry x="280" y="110" width="150" height="60" as="geometry"/>
                </mxCell>
                <mxCell id="0TmKVMzRt482meiMploH-16" value="" style="group" parent="1" vertex="1" connectable="0">
                    <mxGeometry x="670" y="63" width="220" height="250" as="geometry"/>
                </mxCell>
                <mxCell id="6" value="Table Filter" style="shape=parallelogram;perimeter=parallelogramPerimeter;whiteSpace=wrap;html=1;fixedSize=1;verticalAlign=top;" parent="0TmKVMzRt482meiMploH-16" vertex="1">
                    <mxGeometry width="220" height="250" as="geometry"/>
                </mxCell>
                <mxCell id="14" value="&lt;h1&gt;&lt;font style=&quot;font-size: 16px;&quot;&gt;Display Data&lt;/font&gt;&lt;/h1&gt;&lt;p&gt;- Mvt states&lt;/p&gt;&lt;p&gt;- Events&lt;/p&gt;&lt;p&gt;- Periods&lt;/p&gt;" style="text;html=1;strokeColor=none;fillColor=none;spacing=5;spacingTop=-20;whiteSpace=wrap;overflow=hidden;rounded=0;" parent="0TmKVMzRt482meiMploH-16" vertex="1">
                    <mxGeometry x="45" y="45" width="130" height="180" as="geometry"/>
                </mxCell>
                <mxCell id="0TmKVMzRt482meiMploH-17" value="" style="shape=doubleArrow;direction=south;whiteSpace=wrap;html=1;fontSize=16;" parent="1" vertex="1">
                    <mxGeometry x="740" y="313" width="60" height="127" as="geometry"/>
                </mxCell>
                <mxCell id="ioWi__N-kpNqOFTCKsJw-15" value="- selected states&lt;br&gt;- selected types&lt;br&gt;- selected tags" style="text;html=1;strokeColor=none;fillColor=none;align=left;verticalAlign=middle;whiteSpace=wrap;rounded=0;" parent="1" vertex="1">
                    <mxGeometry x="314" y="153" width="100" height="90" as="geometry"/>
                </mxCell>
                <mxCell id="ioWi__N-kpNqOFTCKsJw-16" value="+ positions&lt;br&gt;+ selected states&lt;br&gt;+ selected events&lt;br&gt;+ selected periods" style="text;html=1;strokeColor=none;fillColor=none;align=left;verticalAlign=middle;whiteSpace=wrap;rounded=0;" parent="1" vertex="1">
                    <mxGeometry x="650" y="336.5" width="100" height="80" as="geometry"/>
                </mxCell>
            </root>
        </mxGraphModel>
    </diagram>
    <diagram name="Solution" id="GppbWRiAv76KKbkIeLSq">
        <mxGraphModel dx="1130" dy="724" grid="1" gridSize="10" guides="1" tooltips="1" connect="1" arrows="1" fold="1" page="1" pageScale="1" pageWidth="850" pageHeight="1100" math="0" shadow="0">
            <root>
                <mxCell id="KiKVFc0f5oatehXLe41b-0"/>
                <mxCell id="KiKVFc0f5oatehXLe41b-1" parent="KiKVFc0f5oatehXLe41b-0"/>
                <mxCell id="KiKVFc0f5oatehXLe41b-2" value="MOBILES" style="rounded=1;whiteSpace=wrap;html=1;" parent="KiKVFc0f5oatehXLe41b-1" vertex="1">
                    <mxGeometry x="40" y="80" width="240" height="520" as="geometry"/>
                </mxCell>
                <mxCell id="KiKVFc0f5oatehXLe41b-3" value="TABLE" style="rounded=1;whiteSpace=wrap;html=1;" parent="KiKVFc0f5oatehXLe41b-1" vertex="1">
                    <mxGeometry x="290" y="440" width="540" height="160" as="geometry"/>
                </mxCell>
                <mxCell id="KiKVFc0f5oatehXLe41b-7" value="+ filterData&lt;br&gt;+ filterState&lt;br&gt;+ target: MobileList" style="text;html=1;strokeColor=none;fillColor=none;align=left;verticalAlign=middle;whiteSpace=wrap;rounded=0;" parent="KiKVFc0f5oatehXLe41b-1" vertex="1">
                    <mxGeometry x="360" y="80" width="140" height="50" as="geometry"/>
                </mxCell>
                <mxCell id="KiKVFc0f5oatehXLe41b-14" value="&lt;div&gt;&lt;span style=&quot;background-color: initial;&quot;&gt;Mobile filter is not reusable. Why?&lt;/span&gt;&lt;br&gt;&lt;/div&gt;&lt;ul&gt;&lt;li&gt;&lt;span style=&quot;background-color: initial;&quot;&gt;Depends on the specific mobiles =&amp;gt; need to be more generic&amp;nbsp;&lt;/span&gt;&lt;br&gt;&lt;/li&gt;&lt;/ul&gt;" style="text;strokeColor=none;fillColor=none;html=1;whiteSpace=wrap;verticalAlign=middle;overflow=hidden;fontSize=16;" parent="KiKVFc0f5oatehXLe41b-1" vertex="1">
                    <mxGeometry x="40" y="650" width="630" height="110" as="geometry"/>
                </mxCell>
                <mxCell id="Q2aXVHHTqz6LAm_IOf4S-0" value="" style="group" parent="KiKVFc0f5oatehXLe41b-1" vertex="1" connectable="0">
                    <mxGeometry x="590" y="80" width="170" height="240" as="geometry"/>
                </mxCell>
                <mxCell id="KiKVFc0f5oatehXLe41b-4" value="Mobile Filter" style="rounded=1;whiteSpace=wrap;html=1;verticalAlign=top;" parent="Q2aXVHHTqz6LAm_IOf4S-0" vertex="1">
                    <mxGeometry width="170" height="240" as="geometry"/>
                </mxCell>
                <mxCell id="KiKVFc0f5oatehXLe41b-8" value="&lt;h1&gt;&lt;font style=&quot;font-size: 16px;&quot;&gt;Display Data&lt;/font&gt;&lt;/h1&gt;&lt;p&gt;- Mvt states&lt;/p&gt;&lt;p&gt;- Types&lt;/p&gt;&lt;p&gt;- Tags&lt;/p&gt;" style="text;html=1;strokeColor=none;fillColor=none;spacing=5;spacingTop=-20;whiteSpace=wrap;overflow=hidden;rounded=0;" parent="Q2aXVHHTqz6LAm_IOf4S-0" vertex="1">
                    <mxGeometry x="20" y="20" width="130" height="180" as="geometry"/>
                </mxCell>
                <mxCell id="SlHKlZLskb5d3QmczwM--0" value="" style="shape=doubleArrow;whiteSpace=wrap;html=1;fontSize=16;" parent="KiKVFc0f5oatehXLe41b-1" vertex="1">
                    <mxGeometry x="280" y="130" width="310" height="60" as="geometry"/>
                </mxCell>
                <mxCell id="SlHKlZLskb5d3QmczwM--1" value="" style="shape=doubleArrow;direction=south;whiteSpace=wrap;html=1;fontSize=16;" parent="KiKVFc0f5oatehXLe41b-1" vertex="1">
                    <mxGeometry x="630" y="320" width="60" height="120" as="geometry"/>
                </mxCell>
                <mxCell id="vNGPhOJfn8Y4LH3GFGsv-0" value="- filterState" style="text;html=1;strokeColor=none;fillColor=none;align=left;verticalAlign=middle;whiteSpace=wrap;rounded=0;" parent="KiKVFc0f5oatehXLe41b-1" vertex="1">
                    <mxGeometry x="360" y="162" width="140" height="50" as="geometry"/>
                </mxCell>
                <mxCell id="vNGPhOJfn8Y4LH3GFGsv-1" value="+ filterData&lt;br&gt;+ filterState&lt;br&gt;+ target: Table" style="text;html=1;strokeColor=none;fillColor=none;align=left;verticalAlign=middle;whiteSpace=wrap;rounded=0;" parent="KiKVFc0f5oatehXLe41b-1" vertex="1">
                    <mxGeometry x="558" y="355" width="90" height="50" as="geometry"/>
                </mxCell>
                <mxCell id="vNGPhOJfn8Y4LH3GFGsv-2" value="- filterState" style="text;html=1;strokeColor=none;fillColor=none;align=left;verticalAlign=middle;whiteSpace=wrap;rounded=0;" parent="KiKVFc0f5oatehXLe41b-1" vertex="1">
                    <mxGeometry x="670" y="355" width="70" height="50" as="geometry"/>
                </mxCell>
            </root>
        </mxGraphModel>
    </diagram>
    <diagram id="W9hdfxSsF2ca6VOewTD3" name="Filter Component">
        <mxGraphModel dx="1130" dy="724" grid="1" gridSize="10" guides="1" tooltips="1" connect="1" arrows="1" fold="1" page="1" pageScale="1" pageWidth="850" pageHeight="1100" math="0" shadow="0">
            <root>
                <mxCell id="0"/>
                <mxCell id="1" parent="0"/>
                <mxCell id="Z9aPDHAfm7CcdqdKk6vy-1" value="" style="rounded=1;whiteSpace=wrap;html=1;fontSize=16;" parent="1" vertex="1">
                    <mxGeometry x="80" y="80" width="480" height="550" as="geometry"/>
                </mxCell>
                <mxCell id="Z9aPDHAfm7CcdqdKk6vy-2" value="Chips" style="rounded=1;whiteSpace=wrap;html=1;fontSize=16;" parent="1" vertex="1">
                    <mxGeometry x="280" y="110" width="260" height="110" as="geometry"/>
                </mxCell>
                <mxCell id="Z9aPDHAfm7CcdqdKk6vy-3" value="Chexboxes" style="rounded=1;whiteSpace=wrap;html=1;fontSize=16;" parent="1" vertex="1">
                    <mxGeometry x="280" y="280" width="260" height="330" as="geometry"/>
                </mxCell>
                <mxCell id="Z9aPDHAfm7CcdqdKk6vy-4" value="FilterState" style="shape=cylinder3;whiteSpace=wrap;html=1;boundedLbl=1;backgroundOutline=1;size=15;fontSize=16;" parent="1" vertex="1">
                    <mxGeometry x="100" y="210" width="90" height="115" as="geometry"/>
                </mxCell>
                <mxCell id="Z9aPDHAfm7CcdqdKk6vy-5" value="" style="endArrow=classic;startArrow=classic;html=1;fontSize=16;entryX=0;entryY=0.75;entryDx=0;entryDy=0;" parent="1" target="Z9aPDHAfm7CcdqdKk6vy-2" edge="1">
                    <mxGeometry width="50" height="50" relative="1" as="geometry">
                        <mxPoint x="190" y="260" as="sourcePoint"/>
                        <mxPoint x="240" y="210" as="targetPoint"/>
                    </mxGeometry>
                </mxCell>
                <mxCell id="Z9aPDHAfm7CcdqdKk6vy-6" value="" style="endArrow=classic;startArrow=classic;html=1;fontSize=16;entryX=0;entryY=0.5;entryDx=0;entryDy=0;" parent="1" target="Z9aPDHAfm7CcdqdKk6vy-3" edge="1">
                    <mxGeometry width="50" height="50" relative="1" as="geometry">
                        <mxPoint x="190" y="275" as="sourcePoint"/>
                        <mxPoint x="240" y="225" as="targetPoint"/>
                    </mxGeometry>
                </mxCell>
                <mxCell id="Z9aPDHAfm7CcdqdKk6vy-7" value="update" style="text;html=1;strokeColor=none;fillColor=none;align=center;verticalAlign=middle;whiteSpace=wrap;rounded=0;fontSize=16;" parent="1" vertex="1">
                    <mxGeometry x="200" y="200" width="60" height="30" as="geometry"/>
                </mxCell>
                <mxCell id="Z9aPDHAfm7CcdqdKk6vy-8" value="update" style="text;html=1;strokeColor=none;fillColor=none;align=center;verticalAlign=middle;whiteSpace=wrap;rounded=0;fontSize=16;" parent="1" vertex="1">
                    <mxGeometry x="180" y="360" width="60" height="30" as="geometry"/>
                </mxCell>
            </root>
        </mxGraphModel>
    </diagram>
</mxfile>